<svg version="1.1" id="Layer_1" xmlns="http://www.w3.org/2000/svg" xmlns:xlink="http://www.w3.org/1999/xlink" x="0px" y="0px"
	 width="100%" viewBox="0 0 435 157" enable-background="new 0 0 435 157" xml:space="preserve">
<path fill="none" opacity="1.000000" stroke="#000000" stroke-linecap="round" stroke-linejoin="round" stroke-width="3.000000"
	d="
M335.500000,76.500000 
	C335.000000,76.166664 334.050934,75.812874 334.065063,75.502968 
	C334.529846,65.302826 327.357544,62.236248 319.488739,60.040318 
	C312.273773,58.026840 302.127960,62.025532 298.500000,68.000000 
	C294.865936,73.984474 297.537231,80.778099 304.477600,84.047546 
	C309.767731,86.539597 315.436066,87.572525 321.013824,88.943733 
	C324.346130,89.762924 327.623474,90.856850 330.436249,92.602715 
	C335.063293,95.474709 337.105988,100.080109 335.931946,105.485222 
	C334.725677,111.038857 330.550934,114.319862 325.469391,115.901627 
	C319.051178,117.899452 312.411499,117.669632 306.010590,115.469215 
	C298.701263,112.956520 295.090393,107.219513 295.000000,98.500000 
"/>
<path fill="none" opacity="1.000000" stroke="#000000" stroke-linecap="round" stroke-linejoin="round" stroke-width="3.000000"
	d="
M386.500000,76.500000 
	C386.000000,76.166664 385.050934,75.812874 385.065063,75.502968 
	C385.529846,65.302826 378.357544,62.236256 370.488739,60.040314 
	C363.273804,58.026840 353.127960,62.025536 349.499969,67.999992 
	C345.865906,73.984467 348.537231,80.778099 355.477600,84.047531 
	C360.767731,86.539581 366.436096,87.572517 372.013824,88.943726 
	C375.346130,89.762917 378.623505,90.856834 381.436249,92.602715 
	C386.063293,95.474709 388.105957,100.080101 386.931915,105.485214 
	C385.725677,111.038857 381.550934,114.319862 376.469391,115.901627 
	C370.051178,117.899452 363.411499,117.669632 357.010590,115.469208 
	C349.701263,112.956505 346.090393,107.219513 346.000000,98.500000 
"/>
<path fill="none" opacity="1.000000" stroke="#000000" stroke-linecap="round" stroke-linejoin="round" stroke-width="3.000000"
	d="
M156.000000,101.000000 
	C159.028412,103.846779 159.633392,108.103020 162.851883,111.156143 
	C173.575806,121.329102 193.506241,118.451630 199.041687,102.514481 
	C203.201508,90.537872 202.994171,79.207115 195.511169,68.492203 
	C186.999420,56.304241 166.371613,57.286034 158.974243,71.987038 
	C158.169617,73.586082 157.787811,75.525208 156.000000,76.500000 
"/>
<path fill="none" opacity="1.000000" stroke="#000000" stroke-linecap="round" stroke-linejoin="round" stroke-width="3.000000"
	d="
M240.000000,88.000000 
	C255.168503,88.000000 270.337006,88.000000 285.432373,88.000000 
	C287.497772,72.730743 278.409210,60.925404 263.996002,60.067310 
	C256.224121,59.604599 249.603638,62.941906 245.096588,69.071022 
	C237.480179,79.428558 236.493698,98.237907 244.993225,109.005348 
	C250.266586,115.685814 260.523193,119.515129 268.469330,116.906563 
	C276.912231,114.134918 284.113617,109.691208 285.038208,99.503471 
	C285.070953,99.142868 285.666687,98.833344 286.000000,98.500008 
"/>
<path fill="none" opacity="1.000000" stroke="#000000" stroke-linecap="round" stroke-linejoin="round" stroke-width="3.000000"
	d="
M101.500000,39.500000 
	C99.561188,38.599064 97.501450,39.026688 95.499939,39.020615 
	C82.333397,38.980656 69.166588,38.979256 56.000107,39.028599 
	C54.504894,39.034199 52.908459,38.509480 51.250000,39.548214 
	C51.250000,64.833336 51.250000,90.166664 51.250000,116.000000 
	C58.325203,116.000000 65.162605,116.000000 72.000000,116.000000 
	C75.500000,116.000000 79.000000,116.000000 82.500000,116.000000 
	C88.666664,116.000000 95.105164,117.127029 100.932816,115.721458 
	C108.627228,113.865654 110.527153,105.210472 115.465385,99.967400 
	C118.870590,96.351997 121.266113,91.864761 125.000000,88.500000 
"/>
<path fill="none" opacity="1.000000" stroke="#000000" stroke-linecap="round" stroke-linejoin="round" stroke-width="3.000000"
	d="
M98.500000,76.000000 
	C83.000000,76.000000 67.500000,76.000000 52.000000,76.000000 
"/>
<path fill="none" opacity="1.000000" stroke="#000000" stroke-linecap="round" stroke-linejoin="round" stroke-width="3.000000"
	d="
M214.000000,60.500000 
	C214.000000,79.166664 214.000000,97.833336 214.000000,116.500000 
"/>
<path fill="none" opacity="1.000000" stroke="#000000" stroke-linecap="round" stroke-linejoin="round" stroke-width="3.000000"
	d="
M154.500000,60.500000 
	C154.833328,67.166664 155.379150,73.834450 155.344284,80.499184 
	C155.335999,82.082146 155.041183,83.842880 155.035400,85.500122 
	C154.977234,102.166588 155.000000,118.833336 155.000000,135.500000 
"/>
<path fill="none" opacity="1.000000" stroke="#000000" stroke-linecap="round" stroke-linejoin="round" stroke-width="3.000000"
	d="
M105.000000,61.000000 
	C118.333336,78.500000 131.648117,96.014236 145.041214,113.468376 
	C145.946121,114.647659 146.430145,116.553719 148.500000,116.500000 
"/>
<path fill="none" opacity="1.000000" stroke="#000000" stroke-linecap="round" stroke-linejoin="round" stroke-width="2.000000"
	d="
M146.500000,60.500000 
	C138.862778,68.532837 133.015549,77.976997 126.000000,86.500000 
"/>
<path fill="none" opacity="1.000000" stroke="#000000" stroke-linecap="round" stroke-linejoin="round" stroke-width="3.000000"
	d="
M236.500000,60.000000 
	C227.051056,60.052917 220.189560,64.135330 216.564529,73.026314 
	C216.187958,73.949928 216.169373,74.835365 215.000000,75.000000 
"/>
</svg>