<?xml version="1.0" standalone="no"?>
<!DOCTYPE svg PUBLIC "-//W3C//DTD SVG 20010904//EN"
 "http://www.w3.org/TR/2001/REC-SVG-20010904/DTD/svg10.dtd">
<svg version="1.0" xmlns="http://www.w3.org/2000/svg"
 width="194.000000pt" height="194.000000pt" viewBox="0 0 194.000000 194.000000"
 preserveAspectRatio="xMidYMid meet">

<g transform="translate(0.000000,194.000000) scale(0.100000,-0.100000)"
fill="#000000" stroke="none">
<path d="M1063 1655 c-175 -47 -289 -172 -327 -358 -11 -50 -16 -129 -16 -231
l0 -156 26 10 c32 13 115 13 147 1 l25 -10 4 182 c4 157 7 188 25 227 29 65
68 107 127 138 46 24 62 27 151 27 89 0 105 -3 151 -27 59 -31 98 -73 128
-138 20 -42 21 -67 26 -370 l5 -325 98 -3 99 -3 -4 338 c-4 310 -6 343 -25
400 -52 157 -159 256 -320 298 -72 19 -250 19 -320 0z"/>
<path d="M294 1186 c-17 -8 -44 -30 -59 -50 -98 -129 31 -305 185 -252 l44 15
92 -67 93 -67 0 -55 1 -56 -90 -62 c-86 -60 -91 -62 -113 -47 -74 48 -183 16
-225 -65 -43 -84 -14 -178 68 -220 50 -26 93 -25 146 1 56 26 87 77 88 139 l1
48 90 61 91 62 39 -17 c108 -45 225 32 225 148 0 27 -7 62 -15 77 -38 74 -125
107 -202 76 l-42 -17 -93 70 -92 71 -1 54 c-2 124 -119 201 -231 153z"/>
</g>
</svg>
