<?xml version="1.0" standalone="no"?>
<!DOCTYPE svg PUBLIC "-//W3C//DTD SVG 20010904//EN"
 "http://www.w3.org/TR/2001/REC-SVG-20010904/DTD/svg10.dtd">
<svg version="1.0" xmlns="http://www.w3.org/2000/svg"
 width="72.000000pt" height="72.000000pt" viewBox="0 0 72.000000 72.000000"
 preserveAspectRatio="xMidYMid meet">

<g transform="translate(0.000000,72.000000) scale(0.100000,-0.100000)"
fill="#000000" stroke="none">
<path d="M146 584 c-9 -24 -7 -79 4 -108 6 -16 6 -27 0 -31 -6 -4 -10 -73 -10
-161 0 -176 1 -179 72 -143 95 48 98 52 98 135 0 70 2 75 25 86 19 8 31 8 50
0 22 -10 24 -17 27 -89 l3 -78 67 -39 c37 -21 75 -36 83 -32 12 4 15 31 15
160 0 88 -4 157 -10 161 -6 4 -6 15 0 31 17 44 10 124 -10 124 -4 0 -19 -18
-33 -39 -35 -53 -55 -57 -116 -26 l-51 25 -51 -25 c-61 -31 -81 -27 -116 26
-28 43 -38 47 -47 23z m113 -104 c13 0 41 10 63 22 l39 22 42 -22 c52 -27 73
-28 115 -2 37 22 37 22 18 -25 -13 -29 -13 -35 0 -46 11 -9 14 -41 14 -140 l0
-129 -50 25 -49 25 -3 77 -3 78 -42 23 -42 23 -40 -21 c-45 -22 -49 -34 -53
-124 -3 -58 -3 -58 -48 -82 l-45 -24 -3 127 c-2 111 0 129 14 140 14 10 15 17
7 35 -26 54 -25 59 10 38 18 -11 43 -20 56 -20z"/>
</g>
</svg>
