<svg version="1.1" id="Layer_1" xmlns="http://www.w3.org/2000/svg" xmlns:xlink="http://www.w3.org/1999/xlink" x="0px" y="0px"
	 width="100%" viewBox="0 0 96 98" enable-background="new 0 0 96 98" xml:space="preserve">
<path fill="#FEFCFB" opacity="1.000000" stroke="none" 
	d="
M1.000000,33.000000 
	C1.000000,22.374796 1.000000,11.749593 1.000000,1.000000 
	C27.687443,1.000000 54.375065,1.000000 81.422035,1.333864 
	C79.900620,6.008595 78.019844,10.349462 76.004562,15.017001 
	C77.000519,16.940084 77.958031,18.707027 79.313446,20.081619 
	C80.504005,21.289024 82.140358,22.056858 83.361069,23.332178 
	C81.382607,27.943552 79.686905,32.269276 77.843361,36.531040 
	C76.308914,40.078285 75.182617,43.780708 71.000122,45.650948 
	C69.700081,46.232262 69.481232,49.231510 68.803635,51.318832 
	C68.839859,51.513847 68.945122,51.896915 68.623184,52.080822 
	C66.476723,56.140476 64.652191,60.016224 62.803299,63.943722 
	C68.146957,66.256943 73.627861,64.719284 75.840302,59.547497 
	C76.694382,59.002060 77.225288,58.470947 77.968941,57.638847 
	C80.982864,53.960583 82.473221,50.419510 79.813797,46.204735 
	C79.475967,45.669331 79.408112,44.689377 79.655769,44.100746 
	C82.442757,37.476448 85.316010,30.888441 88.505058,24.294136 
	C91.562675,24.865055 94.281342,25.432528 97.000000,26.000000 
	C97.000000,50.244286 97.000000,74.488571 97.000000,99.000000 
	C81.646805,99.000000 66.292061,99.000000 50.584831,98.682907 
	C53.254810,95.521484 56.277271,92.677139 59.555626,89.693001 
	C62.412907,86.594604 65.266029,83.816002 67.545921,80.627510 
	C69.893692,77.344093 73.223656,73.168770 69.759903,69.558479 
	C66.130730,65.775764 61.576618,68.383270 57.404911,70.877907 
	C54.104004,73.343613 51.143253,75.774986 47.893105,78.308144 
	C47.343910,78.916763 47.084122,79.423607 46.835766,79.894348 
	C46.847202,79.858253 46.795216,79.803207 46.455086,79.842392 
	C42.996513,82.346535 39.878071,84.811508 36.759628,87.276474 
	C36.481785,86.971588 36.203938,86.666695 35.926094,86.361809 
	C43.491558,77.412064 51.057018,68.462326 58.813492,59.333485 
	C59.073753,58.829586 59.143005,58.504784 59.190475,58.116074 
	C59.168690,58.052166 59.037914,58.085815 59.377403,58.081570 
	C59.965096,57.702446 60.213299,57.327564 60.670570,56.713924 
	C62.631084,53.284943 64.752441,50.230350 65.991058,46.852100 
	C66.699806,44.919037 66.793091,41.746849 65.658081,40.440304 
	C64.554192,39.169579 61.536465,39.375271 59.345646,39.293636 
	C57.583862,39.227989 55.801983,39.701466 53.989357,39.723618 
	C53.949692,39.511517 53.824593,39.098492 53.983570,38.778988 
	C56.398617,35.781708 58.654690,33.103931 61.089275,30.382904 
	C63.050758,26.513390 66.473755,22.122002 62.387363,18.620512 
	C58.611797,15.385356 54.324837,18.312143 50.420403,20.938866 
	C47.727654,22.938761 45.351936,24.841507 42.686481,26.840660 
	C42.198700,27.265272 42.000652,27.593477 41.869518,27.919426 
	C41.936432,27.917171 41.901909,27.787796 41.596802,27.836908 
	C41.145691,28.234339 40.999683,28.582657 40.862488,28.894146 
	C40.871307,28.857315 40.818031,28.803478 40.473011,28.827940 
	C30.842316,36.770657 21.556639,44.688911 12.270964,52.607166 
	C11.863291,52.180527 11.455617,51.753887 11.047943,51.327251 
	C15.084028,46.692917 19.120113,42.058586 23.443039,37.264668 
	C24.499865,36.075439 25.269854,35.045795 26.019592,34.006973 
	C25.999342,33.997787 26.014172,34.039707 26.336578,33.973110 
	C27.196623,32.981483 27.734259,32.056458 28.204350,31.115799 
	C28.136803,31.100170 28.155727,31.237537 28.385923,31.143473 
	C28.864681,30.792816 28.959494,30.488441 29.089254,29.843826 
	C31.188894,26.113567 33.658558,22.861565 34.878216,19.193882 
	C36.653065,13.856652 33.252651,10.866150 27.825968,12.532267 
	C26.440811,12.957541 25.190971,13.823546 23.528217,14.591471 
	C19.519123,17.674915 15.860770,20.653948 11.872587,23.778809 
	C8.028504,26.949757 4.514252,29.974878 1.000000,33.000000 
z"/>
<path fill="#FEC927" opacity="1.000000" stroke="none" 
	d="
M1.000000,85.000000 
	C1.000000,78.978844 1.000000,72.957695 1.302478,66.325211 
	C14.409041,54.812675 27.213127,43.911465 40.091743,33.352367 
	C42.766750,36.217148 45.367222,38.739819 47.793671,41.530949 
	C39.877506,49.258968 32.120869,56.703552 24.397469,64.182465 
	C17.250944,71.102768 10.139993,78.059792 2.677814,85.000458 
	C1.894835,85.000175 1.447417,85.000092 1.000000,85.000000 
z"/>
<path fill="#FEC927" opacity="1.000000" stroke="none" 
	d="
M1.000000,57.000000 
	C1.000000,50.645603 1.000000,44.291203 1.313310,37.341507 
	C4.963812,34.182838 8.301003,31.619469 11.783819,29.376831 
	C14.275793,31.866079 16.622143,34.034592 18.986153,36.404228 
	C19.003811,36.605350 19.055725,37.005795 19.007732,37.349243 
	C12.973159,44.128460 6.986579,50.564228 1.000000,57.000000 
z"/>
<path fill="#EFAC11" opacity="1.000000" stroke="none" 
	d="
M1.000000,57.449982 
	C6.986579,50.564228 12.973159,44.128460 19.306786,37.309132 
	C20.098877,36.342785 20.543921,35.760002 21.323208,35.132126 
	C22.106247,35.060719 22.555044,35.034397 23.014088,35.411369 
	C23.068291,36.351189 23.112246,36.887722 23.156200,37.424252 
	C19.120113,42.058586 15.084028,46.692917 11.047943,51.327251 
	C11.455617,51.753887 11.863291,52.180527 12.270964,52.607166 
	C21.556639,44.688911 30.842316,36.770657 40.536263,29.185940 
	C40.635426,30.683069 40.326317,31.846661 40.017212,33.010254 
	C27.213127,43.911465 14.409041,54.812675 1.302478,65.856941 
	C1.000000,63.299988 1.000000,60.599972 1.000000,57.449982 
M9.698557,54.831657 
	C9.683315,54.437416 9.668074,54.043171 9.652831,53.648930 
	C8.982985,54.117752 8.313139,54.586575 7.020175,55.115971 
	C6.187108,55.838791 5.354041,56.561611 4.520973,57.284431 
	C4.943552,57.707539 5.366131,58.130646 5.788711,58.553753 
	C6.862169,57.472324 7.935628,56.390900 9.698557,54.831657 
M2.587706,59.517445 
	C2.587706,59.517445 2.478538,59.582199 2.587706,59.517445 
z"/>
<path fill="#EFAC10" opacity="1.000000" stroke="none" 
	d="
M58.622482,59.512581 
	C51.057018,68.462326 43.491558,77.412064 35.926094,86.361809 
	C36.203938,86.666695 36.481785,86.971588 36.759628,87.276474 
	C39.878071,84.811508 42.996513,82.346535 46.525719,80.246376 
	C46.882675,81.428734 46.828865,82.246292 46.500793,83.227524 
	C43.723988,85.549805 41.113472,87.597160 38.745979,89.894905 
	C35.727901,92.824066 32.906300,95.955666 30.000000,99.000000 
	C27.958334,99.000000 25.916666,99.000000 23.440571,98.764610 
	C23.006144,98.529221 22.972746,98.059586 22.987810,97.719162 
	C23.015928,96.924568 23.028980,96.470406 23.337395,95.863785 
	C24.358683,95.036942 25.155796,94.424072 25.799767,93.678871 
	C34.195309,83.963547 42.591961,74.248848 50.905190,64.463356 
	C51.570766,63.679909 51.623302,62.375656 52.302376,61.189972 
	C54.369659,60.319016 56.095287,59.571507 58.015621,59.002762 
	C58.347713,59.291878 58.485096,59.402229 58.622482,59.512581 
z"/>
<path fill="#FEC725" opacity="1.000000" stroke="none" 
	d="
M30.467939,99.000000 
	C32.906300,95.955666 35.727901,92.824066 38.745979,89.894905 
	C41.113472,87.597160 43.723988,85.549805 46.615662,83.557915 
	C49.323563,85.980110 51.642342,88.235588 53.894943,90.799515 
	C51.885841,93.738647 49.942921,96.369324 48.000000,99.000000 
	C42.311958,99.000000 36.623920,99.000000 30.467939,99.000000 
z"/>
<path fill="#D6312F" opacity="1.000000" stroke="none" 
	d="
M84.000000,1.000000 
	C88.252266,1.000000 92.504532,1.000000 97.000000,1.000000 
	C97.000000,4.678430 97.000000,8.360040 96.619125,12.514981 
	C91.488373,11.324580 86.738503,9.660847 82.030632,7.633039 
	C82.715088,5.179309 83.357544,3.089655 84.000000,1.000000 
z"/>
<path fill="#FFC723" opacity="1.000000" stroke="none" 
	d="
M23.042034,96.016251 
	C23.028980,96.470406 23.015928,96.924568 22.522320,97.694946 
	C15.027844,98.007446 8.013923,98.003723 1.000000,98.000000 
	C1.000000,93.974815 1.000000,89.949638 1.000000,85.462227 
	C1.447417,85.000092 1.894835,85.000175 2.846958,85.247375 
	C3.904564,85.695480 4.457462,85.896484 5.013071,86.458832 
	C5.528962,87.794930 5.809402,89.328041 6.592782,89.654572 
	C12.017283,91.915672 17.546463,93.925644 23.042034,96.016251 
z"/>
<path fill="#E83C33" opacity="1.000000" stroke="none" 
	d="
M97.000000,18.000000 
	C97.000000,19.714375 97.000000,21.428751 96.614349,23.564289 
	C91.198586,22.007175 86.094147,20.189898 81.195137,17.927715 
	C80.088959,17.416922 79.698029,15.357177 79.087440,13.790255 
	C79.391777,13.292188 79.649017,13.096465 80.368378,12.988462 
	C86.178665,14.662691 91.589333,16.331347 97.000000,18.000000 
z"/>
<path fill="#DF3631" opacity="1.000000" stroke="none" 
	d="
M97.000000,17.583334 
	C91.589333,16.331347 86.178665,14.662691 80.379776,12.633938 
	C80.657242,10.848264 81.322937,9.422688 81.988632,7.997113 
	C86.738503,9.660847 91.488373,11.324580 96.619125,12.994157 
	C97.000000,14.388889 97.000000,15.777779 97.000000,17.583334 
z"/>
<path fill="#D24339" opacity="1.000000" stroke="none" 
	d="
M78.977852,14.010456 
	C79.698029,15.357177 80.088959,17.416922 81.195137,17.927715 
	C86.094147,20.189898 91.198586,22.007175 96.614349,23.992725 
	C97.000000,24.444445 97.000000,24.888889 97.000000,25.666668 
	C94.281342,25.432528 91.562675,24.865055 88.301552,23.994869 
	C86.365997,23.467718 84.972908,23.243277 83.579819,23.018835 
	C82.140358,22.056858 80.504005,21.289024 79.313446,20.081619 
	C77.958031,18.707027 77.000519,16.940084 76.379051,15.052828 
	C77.584648,14.511474 78.281250,14.260964 78.977852,14.010456 
z"/>
<path fill="#EEAB16" opacity="1.000000" stroke="none" 
	d="
M11.638196,29.056099 
	C8.301003,31.619469 4.963812,34.182838 1.313310,36.873104 
	C1.000000,35.933331 1.000000,34.866661 1.000000,33.399994 
	C4.514252,29.974878 8.028504,26.949757 11.816391,24.243362 
	C11.939415,26.060093 11.788806,27.558096 11.638196,29.056099 
z"/>
<path fill="#C23935" opacity="1.000000" stroke="none" 
	d="
M79.087440,13.790256 
	C78.281250,14.260964 77.584648,14.511474 76.513557,14.726155 
	C78.019844,10.349462 79.900620,6.008595 81.890694,1.333864 
	C82.444443,1.000000 82.888893,1.000000 83.666672,1.000000 
	C83.357544,3.089655 82.715088,5.179309 82.030632,7.633038 
	C81.322937,9.422688 80.657242,10.848264 79.980148,12.628365 
	C79.649017,13.096465 79.391777,13.292188 79.087440,13.790256 
z"/>
<path fill="#EDA817" opacity="1.000000" stroke="none" 
	d="
M48.333332,99.000000 
	C49.942921,96.369324 51.885841,93.738647 54.311142,90.684982 
	C56.180939,89.901001 57.568359,89.540001 59.036667,89.345139 
	C59.117550,89.511269 59.299732,89.832794 59.299732,89.832794 
	C56.277271,92.677139 53.254810,95.521484 50.116173,98.682907 
	C49.555553,99.000000 49.111111,99.000000 48.333332,99.000000 
z"/>
<path fill="#FFDC75" opacity="1.000000" stroke="none" 
	d="
M1.000000,98.500000 
	C8.013923,98.003723 15.027844,98.007446 22.507256,98.035378 
	C22.972746,98.059586 23.006144,98.529221 23.003071,98.764610 
	C15.666667,99.000000 8.333333,99.000000 1.000000,98.500000 
z"/>
<path fill="#EEA805" opacity="1.000000" stroke="none" 
	d="
M5.010361,86.097481 
	C4.457462,85.896484 3.904564,85.695480 3.182521,85.247559 
	C10.139993,78.059792 17.250944,71.102768 24.397469,64.182465 
	C32.120869,56.703552 39.877506,49.258968 48.145042,41.457676 
	C50.388485,40.443459 52.106541,39.770977 53.824593,39.098492 
	C53.824593,39.098492 53.949692,39.511517 53.944809,39.972515 
	C53.909100,40.599255 53.878273,40.764996 53.587021,41.133965 
	C50.297604,44.952785 47.268608,48.568378 44.047699,51.962837 
	C42.461582,52.764919 40.969006,53.678585 39.688553,54.828453 
	C28.108036,65.227951 16.564636,75.668770 5.010361,86.097481 
z"/>
<path fill="#C73331" opacity="1.000000" stroke="none" 
	d="
M83.361069,23.332178 
	C84.972908,23.243277 86.365997,23.467718 87.962593,23.991425 
	C85.316010,30.888441 82.442757,37.476448 79.655769,44.100746 
	C79.408112,44.689377 79.475967,45.669331 79.813797,46.204735 
	C82.473221,50.419510 80.982864,53.960583 77.687790,57.606178 
	C76.816704,57.861603 76.439514,57.848709 76.066223,57.535484 
	C76.371979,56.489979 76.673843,55.744804 77.253944,54.769028 
	C77.758423,53.919624 78.239311,53.267765 78.164055,52.688103 
	C77.919823,50.806686 77.471840,48.951725 77.102310,47.086575 
	C75.324829,47.663151 73.483704,48.099285 71.792351,48.865891 
	C70.672882,49.373287 69.768234,50.354645 68.767410,51.123817 
	C69.481232,49.231510 69.700081,46.232262 71.000122,45.650948 
	C75.182617,43.780708 76.308914,40.078285 77.843361,36.531040 
	C79.686905,32.269276 81.382607,27.943552 83.361069,23.332178 
z"/>
<path fill="#BE3328" opacity="1.000000" stroke="none" 
	d="
M53.983570,38.778988 
	C52.106541,39.770977 50.388485,40.443459 48.319061,41.189217 
	C45.367222,38.739819 42.766750,36.217148 40.091743,33.352364 
	C40.326317,31.846661 40.635426,30.683069 40.881283,29.161476 
	C40.818031,28.803478 40.871307,28.857315 41.140404,28.821955 
	C41.573639,28.453661 41.737774,28.120729 41.901909,27.787796 
	C41.901909,27.787796 41.936432,27.917171 42.152096,27.826824 
	C42.570580,27.405737 42.773399,27.074995 42.976219,26.744253 
	C45.351936,24.841507 47.727654,22.938761 50.698509,21.115602 
	C51.530678,21.786249 51.767712,22.377306 51.985577,23.217640 
	C51.966408,23.466913 51.925316,23.964443 51.563828,23.972567 
	C49.460331,25.652605 47.718319,27.324520 45.671448,29.150814 
	C41.557491,31.931232 43.389595,34.103104 45.841930,36.370220 
	C48.921116,39.216839 51.118114,38.095379 53.293251,34.866558 
	C55.059334,33.471531 56.535217,32.217804 58.733673,30.816971 
	C59.941082,30.588625 60.425922,30.507389 60.910759,30.426153 
	C58.654690,33.103931 56.398617,35.781708 53.983570,38.778988 
z"/>
<path fill="#D54B3D" opacity="1.000000" stroke="none" 
	d="
M57.745071,70.843575 
	C61.576618,68.383270 66.130730,65.775764 69.759903,69.558479 
	C73.223656,73.168770 69.893692,77.344093 67.545921,80.627510 
	C65.266029,83.816002 62.412907,86.594604 59.555626,89.693001 
	C59.299732,89.832794 59.117550,89.511269 59.038757,89.099503 
	C58.650257,88.112595 58.340546,87.537453 58.153255,86.693436 
	C58.854778,85.627037 59.433880,84.829491 60.361179,83.987930 
	C63.066151,80.718582 65.562019,77.580063 67.671082,74.200172 
	C68.134338,73.457771 67.544197,71.578255 66.828018,70.752296 
	C66.368530,70.222374 64.760048,70.505150 63.720493,70.704559 
	C62.139668,71.007790 60.605579,71.554695 58.890770,71.748650 
	C58.401623,71.280655 58.073349,71.062111 57.745071,70.843575 
z"/>
<path fill="#C43A2C" opacity="1.000000" stroke="none" 
	d="
M11.783819,29.376831 
	C11.788806,27.558096 11.939415,26.060093 12.146221,24.097534 
	C15.860770,20.653948 19.519123,17.674915 23.559378,15.006387 
	C23.960587,15.870278 23.979893,16.423666 23.733425,17.100143 
	C22.973717,17.809877 22.479782,18.396521 21.638977,19.025295 
	C19.396799,21.072603 16.796059,22.795738 15.843635,25.177896 
	C15.160215,26.887232 16.133780,29.867195 17.353178,31.578321 
	C18.949366,33.818176 21.335041,33.678310 23.336308,31.038385 
	C24.111082,30.995369 24.553627,30.967165 25.140007,31.190056 
	C25.605354,31.645552 25.926868,31.849949 26.152458,32.380051 
	C26.042416,33.150402 26.028294,33.595055 26.014172,34.039707 
	C26.014172,34.039707 25.999342,33.997787 25.676689,33.941662 
	C24.570639,34.259716 23.787239,34.633896 23.003839,35.008076 
	C22.555044,35.034397 22.106247,35.060719 21.040253,35.178848 
	C19.938200,35.581470 19.453346,35.892288 18.968493,36.203106 
	C16.622143,34.034592 14.275793,31.866079 11.783819,29.376831 
z"/>
<path fill="#D44A3B" opacity="1.000000" stroke="none" 
	d="
M53.847443,40.930737 
	C53.878273,40.764996 53.909100,40.599255 53.984474,40.184616 
	C55.801983,39.701466 57.583862,39.227989 59.345646,39.293636 
	C61.536465,39.375271 64.554192,39.169579 65.658081,40.440304 
	C66.793091,41.746849 66.699806,44.919037 65.991058,46.852100 
	C64.752441,50.230350 62.631084,53.284943 60.347023,56.780426 
	C59.555576,57.419064 59.296745,57.752438 59.037910,58.085815 
	C59.037914,58.085815 59.168690,58.052166 58.874454,58.026260 
	C58.362621,57.984913 58.145023,57.969471 57.678856,57.852825 
	C56.959797,57.491131 56.489307,57.230640 56.141251,56.681961 
	C56.516674,55.609245 56.769669,54.824715 57.334568,53.891357 
	C62.204643,50.777504 64.370399,45.947098 63.086956,41.003632 
	C60.735367,41.669445 58.387489,42.334206 55.902428,42.722115 
	C55.125973,41.940414 54.486710,41.435577 53.847443,40.930737 
z"/>
<path fill="#D34338" opacity="1.000000" stroke="none" 
	d="
M26.248383,32.054348 
	C25.926868,31.849949 25.605354,31.645552 25.176910,30.849136 
	C26.710405,28.010403 28.659605,25.920311 29.901756,23.471565 
	C31.072193,21.164198 31.497744,18.478981 32.250988,15.959990 
	C29.500391,16.299011 26.749796,16.638033 23.999199,16.977055 
	C23.979893,16.423666 23.960587,15.870278 23.910122,14.901974 
	C25.190971,13.823546 26.440811,12.957541 27.825968,12.532267 
	C33.252651,10.866150 36.653065,13.856652 34.878216,19.193882 
	C33.658558,22.861565 31.188894,26.113567 28.882290,29.957405 
	C28.248966,30.606480 28.138666,30.897844 28.155727,31.237537 
	C28.155727,31.237537 28.136803,31.100170 27.927162,31.176224 
	C27.227810,31.519636 26.738096,31.786993 26.248383,32.054348 
z"/>
<path fill="#C3362E" opacity="1.000000" stroke="none" 
	d="
M58.030830,86.962303 
	C58.340546,87.537453 58.650257,88.112595 58.957874,88.933372 
	C57.568359,89.540001 56.180939,89.901001 54.377319,90.376534 
	C51.642342,88.235588 49.323563,85.980110 46.889915,83.394234 
	C46.828865,82.246292 46.882675,81.428734 46.865852,80.207199 
	C46.795216,79.803207 46.847202,79.858253 47.116024,79.803864 
	C47.650734,79.235107 47.916618,78.720734 48.182503,78.206360 
	C51.143253,75.774986 54.104004,73.343613 57.404911,70.877907 
	C58.073349,71.062111 58.401623,71.280655 58.870003,71.996620 
	C59.010113,72.494041 58.995571,72.991310 58.700974,73.122574 
	C57.273369,74.173164 56.140358,75.092491 54.699303,76.158699 
	C53.327450,77.318779 51.920815,78.158142 51.294624,79.393204 
	C50.646412,80.671707 50.038746,82.966415 50.682877,83.696388 
	C52.007359,85.197372 54.178623,85.951134 56.339462,87.007233 
	C57.128635,86.988792 57.579735,86.975548 58.030830,86.962303 
z"/>
<path fill="#D15552" opacity="1.000000" stroke="none" 
	d="
M75.517113,59.561821 
	C73.627861,64.719284 68.146957,66.256943 62.803299,63.943722 
	C64.652191,60.016224 66.476723,56.140476 68.710175,52.328445 
	C69.156349,52.563042 69.193619,52.733917 69.201447,53.290226 
	C69.414314,56.016525 69.656631,58.357395 69.923203,60.932613 
	C71.838654,60.490520 73.731224,60.053715 75.596420,59.604477 
	C75.569061,59.592049 75.517113,59.561821 75.517113,59.561821 
z"/>
<path fill="#D0453D" opacity="1.000000" stroke="none" 
	d="
M61.089275,30.382904 
	C60.425922,30.507389 59.941082,30.588625 58.733631,30.491678 
	C58.014675,29.878771 58.018333,29.444048 58.293346,28.805834 
	C59.408791,26.005190 60.252880,23.408037 61.096970,20.810883 
	C58.367542,21.392466 55.636612,21.967205 52.910713,22.564882 
	C52.594437,22.634228 52.306057,22.830784 52.004745,22.968365 
	C51.767712,22.377306 51.530678,21.786249 51.015541,21.018456 
	C54.324837,18.312143 58.611797,15.385356 62.387363,18.620512 
	C66.473755,22.122002 63.050758,26.513390 61.089275,30.382904 
z"/>
<path fill="#E23933" opacity="1.000000" stroke="none" 
	d="
M69.230896,52.904800 
	C69.193619,52.733917 69.156349,52.563042 69.032104,52.144539 
	C68.945122,51.896915 68.839859,51.513847 68.803635,51.318832 
	C69.768234,50.354645 70.672882,49.373287 71.792351,48.865891 
	C73.483704,48.099285 75.324829,47.663151 77.102310,47.086575 
	C77.471840,48.951725 77.919823,50.806686 78.164055,52.688103 
	C78.239311,53.267765 77.758423,53.919624 76.923264,54.618423 
	C73.953194,54.100540 71.592041,53.502670 69.230896,52.904800 
z"/>
<path fill="#EFAD17" opacity="1.000000" stroke="none" 
	d="
M23.014088,35.411369 
	C23.787239,34.633896 24.570639,34.259716 25.696939,33.950844 
	C25.269854,35.045795 24.499865,36.075439 23.443039,37.264668 
	C23.112246,36.887722 23.068291,36.351189 23.014088,35.411369 
z"/>
<path fill="#D15552" opacity="1.000000" stroke="none" 
	d="
M76.062332,57.835815 
	C76.439514,57.848709 76.816704,57.861603 77.475037,57.907166 
	C77.225288,58.470947 76.694382,59.002060 75.840302,59.547497 
	C75.517113,59.561821 75.569061,59.592049 75.700127,59.318558 
	C75.908241,58.641979 75.985283,58.238899 76.062332,57.835815 
z"/>
<path fill="#EFAD17" opacity="1.000000" stroke="none" 
	d="
M26.152458,32.380051 
	C26.738096,31.786993 27.227810,31.519636 27.994709,31.191854 
	C27.734259,32.056458 27.196623,32.981483 26.336578,33.973110 
	C26.028294,33.595055 26.042416,33.150402 26.152458,32.380051 
z"/>
<path fill="#EFAC10" opacity="1.000000" stroke="none" 
	d="
M47.893105,78.308144 
	C47.916618,78.720734 47.650734,79.235107 47.104588,79.839966 
	C47.084122,79.423607 47.343910,78.916763 47.893105,78.308144 
z"/>
<path fill="#EFAC10" opacity="1.000000" stroke="none" 
	d="
M59.377399,58.081566 
	C59.296745,57.752438 59.555576,57.419064 60.137959,57.019188 
	C60.213299,57.327564 59.965096,57.702446 59.377399,58.081566 
z"/>
<path fill="#EFAC10" opacity="1.000000" stroke="none" 
	d="
M57.927429,57.954025 
	C58.145023,57.969471 58.362621,57.984913 58.896240,58.090172 
	C59.143005,58.504784 59.073753,58.829586 58.813492,59.333485 
	C58.485096,59.402229 58.347713,59.291878 58.049744,58.786659 
	C57.889164,58.391792 57.927429,57.954025 57.927429,57.954025 
z"/>
<path fill="#EFAD17" opacity="1.000000" stroke="none" 
	d="
M28.385923,31.143473 
	C28.138666,30.897844 28.248966,30.606480 28.693592,30.249863 
	C28.959494,30.488441 28.864681,30.792816 28.385923,31.143473 
z"/>
<path fill="#EFAC11" opacity="1.000000" stroke="none" 
	d="
M41.596802,27.836908 
	C41.737774,28.120729 41.573639,28.453661 41.131588,28.858784 
	C40.999683,28.582657 41.145691,28.234339 41.596802,27.836908 
z"/>
<path fill="#EFAC11" opacity="1.000000" stroke="none" 
	d="
M42.686478,26.840660 
	C42.773399,27.074995 42.570580,27.405737 42.085182,27.829081 
	C42.000652,27.593477 42.198700,27.265272 42.686478,26.840660 
z"/>
<path fill="#EFAD17" opacity="1.000000" stroke="none" 
	d="
M18.986153,36.404228 
	C19.453346,35.892288 19.938200,35.581470 20.706009,35.223934 
	C20.543921,35.760002 20.098877,36.342785 19.354778,36.965683 
	C19.055725,37.005795 19.003811,36.605350 18.986153,36.404228 
z"/>
<path fill="#EFAD17" opacity="1.000000" stroke="none" 
	d="
M9.009087,55.309471 
	C7.935628,56.390900 6.862169,57.472324 5.788711,58.553753 
	C5.366131,58.130646 4.943552,57.707539 4.520973,57.284431 
	C5.354041,56.561611 6.187108,55.838791 7.679259,55.118439 
	C8.561924,55.183765 8.785505,55.246616 9.009087,55.309471 
z"/>
<path fill="#FEFCFB" opacity="1.000000" stroke="none" 
	d="
M9.353822,55.070564 
	C8.785505,55.246616 8.561924,55.183765 7.990818,55.088154 
	C8.313139,54.586575 8.982985,54.117752 9.652832,53.648930 
	C9.668074,54.043171 9.683315,54.437416 9.353822,55.070564 
z"/>
<path fill="#EFAD17" opacity="1.000000" stroke="none" 
	d="
M2.533122,59.549820 
	C2.478538,59.582199 2.587706,59.517445 2.533122,59.549820 
z"/>
<path fill="#FFC927" opacity="1.000000" stroke="none" 
	d="
M5.013071,86.458832 
	C16.564636,75.668770 28.108036,65.227951 39.688553,54.828453 
	C40.969006,53.678585 42.461582,52.764919 44.029316,52.313019 
	C44.931164,57.403744 47.700397,60.044762 51.960724,61.313423 
	C51.623302,62.375656 51.570766,63.679909 50.905190,64.463356 
	C42.591961,74.248848 34.195309,83.963547 25.799767,93.678871 
	C25.155796,94.424072 24.358683,95.036942 23.337393,95.863785 
	C17.546463,93.925644 12.017283,91.915672 6.592782,89.654572 
	C5.809402,89.328041 5.528962,87.794930 5.013071,86.458832 
z"/>
<path fill="#C43729" opacity="1.000000" stroke="none" 
	d="
M52.302376,61.189972 
	C47.700397,60.044762 44.931164,57.403744 44.221230,52.534149 
	C47.268608,48.568378 50.297604,44.952785 53.587021,41.133965 
	C54.486710,41.435577 55.125973,41.940414 55.883694,42.965744 
	C56.002148,43.486229 55.986649,43.974495 55.658772,44.011620 
	C54.221001,45.032646 53.111111,46.016548 51.698357,47.151505 
	C50.115948,49.556076 48.040291,51.757637 47.888412,54.084755 
	C47.810986,55.271042 51.188530,56.682819 53.301361,57.869522 
	C54.405170,57.487629 55.211994,57.228886 56.018822,56.970146 
	C56.489307,57.230640 56.959797,57.491131 57.678856,57.852825 
	C57.927429,57.954025 57.889164,58.391792 57.855042,58.607895 
	C56.095287,59.571507 54.369659,60.319016 52.302376,61.189972 
z"/>
<path fill="#E74542" opacity="1.000000" stroke="none" 
	d="
M76.066223,57.535484 
	C75.985283,58.238899 75.908241,58.641979 75.727493,59.330986 
	C73.731224,60.053715 71.838654,60.490520 69.923203,60.932613 
	C69.656631,58.357395 69.414314,56.016525 69.201447,53.290230 
	C71.592041,53.502670 73.953194,54.100540 76.645020,54.849022 
	C76.673843,55.744804 76.371979,56.489979 76.066223,57.535484 
z"/>
<path fill="#E23832" opacity="1.000000" stroke="none" 
	d="
M58.021996,29.009323 
	C58.018333,29.444048 58.014675,29.878771 58.011063,30.638786 
	C56.535217,32.217804 55.059334,33.471531 53.147728,34.565845 
	C50.466778,32.603100 48.221542,30.799768 45.976307,28.996437 
	C47.718319,27.324520 49.460331,25.652605 51.867786,24.116657 
	C54.362820,25.838190 56.192406,27.423756 58.021996,29.009323 
z"/>
<path fill="#DA3330" opacity="1.000000" stroke="none" 
	d="
M45.671448,29.150816 
	C48.221542,30.799768 50.466778,32.603100 52.857533,34.707146 
	C51.118114,38.095379 48.921116,39.216839 45.841930,36.370220 
	C43.389595,34.103104 41.557491,31.931232 45.671448,29.150816 
z"/>
<path fill="#EA3D33" opacity="1.000000" stroke="none" 
	d="
M58.293350,28.805834 
	C56.192406,27.423756 54.362820,25.838190 52.229271,24.108532 
	C51.925316,23.964443 51.966408,23.466913 51.985577,23.217638 
	C52.306057,22.830784 52.594437,22.634228 52.910713,22.564882 
	C55.636612,21.967205 58.367542,21.392466 61.096970,20.810883 
	C60.252880,23.408037 59.408791,26.005190 58.293350,28.805834 
z"/>
<path fill="#F14135" opacity="1.000000" stroke="none" 
	d="
M58.995571,72.991310 
	C58.995571,72.991310 59.010113,72.494041 59.030876,72.246071 
	C60.605579,71.554695 62.139668,71.007790 63.720493,70.704559 
	C64.760048,70.505150 66.368530,70.222374 66.828018,70.752296 
	C67.544197,71.578255 68.134338,73.457771 67.671082,74.200172 
	C65.562019,77.580063 63.066151,80.718582 60.306290,83.576965 
	C59.600655,79.803787 59.298115,76.397545 58.995571,72.991310 
z"/>
<path fill="#E93C33" opacity="1.000000" stroke="none" 
	d="
M58.700974,73.122574 
	C59.298115,76.397545 59.600655,79.803787 59.958092,83.620987 
	C59.433880,84.829491 58.854778,85.627037 58.153255,86.693436 
	C57.579735,86.975548 57.128635,86.988792 56.287849,86.598404 
	C55.601219,82.800438 55.304279,79.406128 55.007343,76.011810 
	C56.140358,75.092491 57.273369,74.173164 58.700974,73.122574 
z"/>
<path fill="#F14135" opacity="1.000000" stroke="none" 
	d="
M23.733425,17.100143 
	C26.749796,16.638033 29.500391,16.299011 32.250988,15.959990 
	C31.497744,18.478981 31.072193,21.164198 29.901756,23.471565 
	C28.659605,25.920311 26.710405,28.010403 25.033075,30.598042 
	C24.553627,30.967165 24.111082,30.995369 23.334999,30.578751 
	C22.662924,26.417007 22.324387,22.700087 21.985847,18.983166 
	C22.479782,18.396521 22.973717,17.809877 23.733425,17.100143 
z"/>
<path fill="#E43932" opacity="1.000000" stroke="none" 
	d="
M21.638977,19.025295 
	C22.324387,22.700087 22.662924,26.417007 23.002769,30.593563 
	C21.335041,33.678310 18.949366,33.818176 17.353178,31.578321 
	C16.133780,29.867195 15.160215,26.887232 15.843635,25.177896 
	C16.796059,22.795738 19.396799,21.072603 21.638977,19.025295 
z"/>
<path fill="#F14135" opacity="1.000000" stroke="none" 
	d="
M55.986649,43.974495 
	C55.986649,43.974495 56.002148,43.486229 56.020882,43.242599 
	C58.387489,42.334206 60.735367,41.669445 63.086956,41.003632 
	C64.370399,45.947098 62.204643,50.777504 57.168079,53.513367 
	C56.455341,50.180965 56.220993,47.077732 55.986649,43.974495 
z"/>
<path fill="#E93C33" opacity="1.000000" stroke="none" 
	d="
M55.658772,44.011620 
	C56.220993,47.077732 56.455341,50.180965 56.856174,53.662193 
	C56.769669,54.824715 56.516674,55.609245 56.141251,56.681961 
	C55.211994,57.228886 54.405170,57.487629 53.290051,57.455341 
	C52.654907,53.776356 52.328064,50.388405 52.001221,47.000450 
	C53.111111,46.016548 54.221001,45.032646 55.658772,44.011620 
z"/>
<path fill="#E03731" opacity="1.000000" stroke="none" 
	d="
M54.699303,76.158699 
	C55.304279,79.406128 55.601219,82.800438 55.949772,86.603592 
	C54.178623,85.951134 52.007359,85.197372 50.682877,83.696388 
	C50.038746,82.966415 50.646412,80.671707 51.294624,79.393204 
	C51.920815,78.158142 53.327450,77.318779 54.699303,76.158699 
z"/>
<path fill="#E03731" opacity="1.000000" stroke="none" 
	d="
M51.698360,47.151505 
	C52.328064,50.388405 52.654907,53.776356 52.993065,57.578491 
	C51.188530,56.682819 47.810986,55.271042 47.888412,54.084755 
	C48.040291,51.757637 50.115948,49.556076 51.698360,47.151505 
z"/>
</svg>